# xmcd
#
# Track frame offsets:
#	150
#	20562
#	45141
#	67547
#	88763
#	110231
#	133531
#	164150
#	185489
#	211473
#	239034
#	262787
#	283081
#
# Disc length: 4048 seconds
#
# Revision: 3
# Processed by: cddbd v1.5.2PL0 Copyright (c) Steve Scherf et al.
# Submitted via: EZCDAudioConverter 8.0.2.1
#
DISCID=ba0fce0d
DTITLE=Ý Lan - Lời Rêu
DYEAR=2004
DGENRE=Pop
TTITLE0=Ý Lan - Lời Rêu
TTITLE1=Ý Lan - Bài thơ cuối cùng
TTITLE2=Ý Lan - Bài không tên số 6
TTITLE3=Ý Lan - Miên khúc
TTITLE4=Ý Lan - Không còn mùa thu
TTITLE5=Ý Lan - Đưa em tìm động hoa vàng
TTITLE6=Ý Lan, Thái Thanh - Bài ca sao, Nụ tầm xuân
TTITLE7=Ý Lan - Viết trên tà áo
TTITLE8=Ý Lan - Biệt ly
TTITLE9=Ý Lan - Đêm buồn
TTITLE10=Ý Lan - Tình cuồng điên
TTITLE11=Ý Lan - Phôi pha
TTITLE12=Ý Lan - Hạnh phúc mang theo
EXTD=
EXTT0=
EXTT1=
EXTT2=
EXTT3=
EXTT4=
EXTT5=
EXTT6=
EXTT7=
EXTT8=
EXTT9=
EXTT10=
EXTT11=
EXTT12=
PLAYORDER=
